<svg width="31" height="22" viewBox="0 0 31 22" fill="none" xmlns="http://www.w3.org/2000/svg">
<path d="M30.353 3.44323C29.9954 2.08542 28.9454 1.01979 27.6117 0.658854C25.1939 0 15.5 0 15.5 0C15.5 0 5.80612 0 3.38832 0.658854C2.05456 1.01979 1.00458 2.08542 0.647016 3.44323C0 5.90104 0 11.0229 0 11.0229C0 11.0229 0 16.1448 0.647016 18.6026C1.00458 19.9604 2.05456 20.9802 3.38832 21.3411C5.80612 22 15.5 22 15.5 22C15.5 22 25.1939 22 27.6117 21.3411C28.9454 20.9802 29.9954 19.9547 30.353 18.6026C31 16.1448 31 11.0229 31 11.0229C31 11.0229 31 5.90104 30.353 3.44323ZM12.333 15.675V6.37083L20.4321 11.0229L12.333 15.675Z" fill="black"/>
</svg>
