<svg width="27" height="26" viewBox="0 0 27 26" fill="none" xmlns="http://www.w3.org/2000/svg">
<path d="M13.503 6.33393C9.67211 6.33393 6.5821 9.31016 6.5821 13C6.5821 16.6898 9.67211 19.6661 13.503 19.6661C17.3339 19.6661 20.4239 16.6898 20.4239 13C20.4239 9.31016 17.3339 6.33393 13.503 6.33393ZM13.503 17.3338C11.0274 17.3338 9.00351 15.3903 9.00351 13C9.00351 10.6097 11.0214 8.66618 13.503 8.66618C15.9847 8.66618 18.0025 10.6097 18.0025 13C18.0025 15.3903 15.9786 17.3338 13.503 17.3338ZM22.3213 6.06125C22.3213 6.92569 21.5985 7.61609 20.707 7.61609C19.8095 7.61609 19.0928 6.91989 19.0928 6.06125C19.0928 5.20261 19.8156 4.50641 20.707 4.50641C21.5985 4.50641 22.3213 5.20261 22.3213 6.06125ZM26.9051 7.6393C26.8027 5.55651 26.3088 3.71159 24.7247 2.19157C23.1465 0.671538 21.2311 0.195805 19.0687 0.0913756C16.84 -0.0304586 10.16 -0.0304586 7.93134 0.0913756C5.77496 0.190003 3.85951 0.665737 2.27535 2.18576C0.691188 3.70579 0.203291 5.55071 0.0948689 7.63349C-0.031623 9.7801 -0.031623 16.2141 0.0948689 18.3607C0.197267 20.4435 0.691188 22.2884 2.27535 23.8084C3.85951 25.3285 5.76893 25.8042 7.93134 25.9086C10.16 26.0305 16.84 26.0305 19.0687 25.9086C21.2311 25.81 23.1465 25.3343 24.7247 23.8084C26.3028 22.2884 26.7967 20.4435 26.9051 18.3607C27.0316 16.2141 27.0316 9.7859 26.9051 7.6393ZM24.0259 20.664C23.5561 21.8011 22.6466 22.6771 21.46 23.1354C19.683 23.8142 15.4666 23.6576 13.503 23.6576C11.5394 23.6576 7.31695 23.8084 5.54607 23.1354C4.36548 22.6829 3.45594 21.8069 2.98009 20.664C2.27535 18.9525 2.43798 14.8913 2.43798 13C2.43798 11.1087 2.28137 7.04173 2.98009 5.33605C3.44992 4.19893 4.35945 3.32288 5.54607 2.86455C7.32298 2.18576 11.5394 2.34241 13.503 2.34241C15.4666 2.34241 19.6891 2.19157 21.46 2.86455C22.6405 3.31708 23.5501 4.19313 24.0259 5.33605C24.7307 7.04753 24.568 11.1087 24.568 13C24.568 14.8913 24.7307 18.9583 24.0259 20.664Z" fill="black"/>
</svg>
