<svg width="29" height="25" viewBox="0 0 29 25" fill="none" xmlns="http://www.w3.org/2000/svg">
<path d="M14.5 2.67857C8.49043 2.67857 3.53437 7.10938 2.80937 12.8348C3.3418 12.6228 3.91953 12.5 4.53125 12.5C6.03223 12.5 7.25 13.6998 7.25 15.1786V22.3214C7.25 23.8002 6.03223 25 4.53125 25C2.02773 25 0 23.0022 0 20.5357V19.6429V16.9643V14.2857C0 6.39509 6.49102 0 14.5 0C22.509 0 29 6.39509 29 14.2857V16.9643V19.6429V20.5357C29 23.0022 26.9723 25 24.4688 25C22.9678 25 21.75 23.8002 21.75 22.3214V15.1786C21.75 13.6998 22.9678 12.5 24.4688 12.5C25.0805 12.5 25.6582 12.6172 26.1906 12.8348C25.4656 7.10938 20.5096 2.67857 14.5 2.67857Z" fill="black"/>
</svg>
