<svg width="29" height="21" viewBox="0 0 29 21" fill="none" xmlns="http://www.w3.org/2000/svg">
<path d="M28.3947 3.28672C28.0602 1.99062 27.078 0.973438 25.8303 0.628906C23.5685 0 14.5 0 14.5 0C14.5 0 5.43153 0 3.16972 0.628906C1.92201 0.973438 0.939766 1.99062 0.605273 3.28672C0 5.63281 0 10.5219 0 10.5219C0 10.5219 0 15.4109 0.605273 17.757C0.939766 19.0531 1.92201 20.0266 3.16972 20.3711C5.43153 21 14.5 21 14.5 21C14.5 21 23.5685 21 25.8303 20.3711C27.078 20.0266 28.0602 19.0477 28.3947 17.757C29 15.4109 29 10.5219 29 10.5219C29 10.5219 29 5.63281 28.3947 3.28672ZM11.5374 14.9625V6.08125L19.1139 10.5219L11.5374 14.9625Z" fill="white"/>
</svg>
