<svg width="27" height="30" viewBox="0 0 27 30" fill="none" xmlns="http://www.w3.org/2000/svg">
<path d="M27 12.3C24.3458 12.3056 21.7569 11.5 19.5991 9.99708V20.4747C19.5985 22.4152 18.9885 24.3092 17.8508 25.9035C16.7131 27.4978 15.1018 28.7164 13.2326 29.3962C11.3633 30.076 9.32512 30.1846 7.39061 29.7076C5.4561 29.2306 3.7175 28.1906 2.40733 26.7268C1.09716 25.263 0.277891 23.4452 0.0590833 21.5164C-0.159725 19.5876 0.232365 17.6398 1.18291 15.9335C2.13346 14.2273 3.59715 12.8439 5.37822 11.9684C7.1593 11.0928 9.17284 10.767 11.1496 11.0343V16.3024C10.2457 16.0257 9.27505 16.0338 8.37621 16.3255C7.47736 16.6172 6.69628 17.1776 6.14449 17.9266C5.5927 18.6756 5.29841 19.575 5.30365 20.4963C5.30889 21.4177 5.61338 22.3139 6.17365 23.0569C6.73393 23.8 7.52133 24.3519 8.42344 24.6339C9.32555 24.9159 10.2962 24.9136 11.1969 24.6272C12.0975 24.3409 12.8821 23.7851 13.4386 23.0394C13.9951 22.2937 14.295 21.396 14.2955 20.4747V0H19.5991C19.5961 0.436135 19.6344 0.871611 19.7136 1.30091C19.8981 2.25784 20.2813 3.16815 20.8398 3.97621C21.3983 4.78426 22.1205 5.47309 22.9621 6.00059C24.16 6.76991 25.5643 7.17953 27 7.17844V12.3Z" fill="black"/>
</svg>
